<svg version="1.0" xmlns="http://www.w3.org/2000/svg" width="933.333" height="933.333" viewBox="0 0 700 700"><path d="M328.5 3.2c-3.3 2.2-5.8 4.8-7.3 7.9l-2.2 4.5 1.9 7.6c1.8 6.9 6.9 22.4 9 27.3 3.7 8.6 3.8 9.2 1.2 10-1.1.3-2.9 2.5-4 4.9-3.7 7.6-2.2 17 3.4 21.4 2.6 2.1 2.7 2.5 2 7.9-.4 3.2-1.1 7.9-1.6 10.4l-1 4.7-6.7.6c-11.1 1.2-12.1 1.4-29.7 5-1.1.3-6.5 1.8-12 3.4-29.8 8.7-56.4 22.5-81.9 42.5l-6.8 5.4-8.6-5.9-8.6-5.8.1-5.5c.1-4.5-.4-6.1-2.7-9.3-3.5-4.8-9.9-8.2-14.8-7.7l-3.7.3-5.5-12.6c-12.8-29.4-17-33-33-28.1-6.9 2.1-21 16.4-24 24.4-2.4 6.5-2.3 14.4.1 18.3 1.9 3 14.8 10.4 28.7 16.3l12.2 5.3v4c0 9.8 8.5 18.4 17.3 17.4l4.3-.5 5.7 8.3c3.1 4.5 5.7 8.6 5.7 9 0 .4-1.9 3-4.2 5.7-12.2 14.5-29.5 44.7-36.7 64-6.4 17.2-11.9 37.5-13.6 50.7-.3 2.5-.8 5.6-1 7-.3 1.4-.6 4.2-.7 6.3-.2 4.2.2 4-11.7 5.7-4.1.6-7.7 1.3-8.1 1.5-.4.2-1.9-.9-3.3-2.5-7.2-8.1-18.1-8.3-25.9-.6l-2.6 2.6-4.3-1.8c-6.6-2.8-25.7-9.3-31.5-10.6-2.7-.7-6.3-1.1-8-.9-3.9.5-9.3 5-12.2 10.2-2.2 4-2.3 5-2 20.4l.3 16.2 3.2 4.6c4.1 5.9 9 8.3 15.2 7.6 5.1-.7 18.3-4.8 30.9-9.7l8.2-3.1 4.1 3.5c2.4 2 5.7 3.7 8 4.1 6.9 1.2 15.1-1.7 17.1-6 .6-1.3 1.7-2.2 2.7-2 .9.1 3.9.6 6.6.9 10 1.4 12 1.8 12.4 2.2.5.5.6.9 1.5 8.5 1.4 11.6 1.4 11.7 3.7 22.9 3.9 19.1 11.3 39.9 21.4 59.6 6.2 12.2 17.7 30.2 24.5 38.4 7 8.5 7 7.7.9 16.7-4.9 7.1-5.7 7.9-7.9 7.3-8.7-2.3-19.1 6.6-19.4 16.5l-.1 4.6-12.6 5.8c-16.6 7.6-25.6 12.7-27.5 15.7-2 2.9-2.6 10.5-1.2 14.8 4.9 15.5 17.8 27.4 31.6 29.1 9.9 1.2 15.4-5.1 26.2-29.8 6.2-14.2 6.5-14.6 9.1-14 9 1.8 19.5-8.3 18.7-17.9-.3-4.1-.3-4.1 8-9.9l8.4-5.7 6.1 5c28.3 22.9 69.8 42.2 104.2 48.2 1.7.3 4.1.8 5.5 1.1 3.1.6 8.9 1.4 15.5 2.1 2.8.3 5.3.8 5.7 1.2.3.4 1.3 5 2.1 10.2l1.5 9.5-3.3 3.5c-5.8 6.1-6.9 12.2-3.6 19.6 1 2.3 2.9 4.8 4.1 5.7l2.3 1.6-5 13.8c-9.7 26.5-10.2 32.1-3.7 38.6 6.1 6.1 8.4 6.7 25.6 6.7h15.3l5-3.3c5.9-3.8 9.6-10 8.8-14.8-.7-4.6-5.6-20.2-9.7-31.2l-3.7-9.7 3-2.6c7.3-6.1 6.9-18.8-.9-25.7l-2.8-2.5 1.4-6.4c.7-3.4 1.3-7.8 1.4-9.6 0-3.7.5-4 7.5-4.6 25.7-2.4 61.5-12.9 82.3-24.2 2.6-1.5 7.6-4.2 11.2-6.2 10.8-5.9 33.4-21.9 36-25.4.3-.4 4.6 1.9 9.5 5.2l9 6-.2 4.7c-.4 6.2 2 10.9 7.5 14.7 3.4 2.4 5.3 3 9 2.9l4.8-.1 2.8 7.1c1.6 4 5.6 12.5 8.9 19 7.3 14.3 9.5 16.2 18.3 16.2 17.6-.1 37.9-21.3 35-36.8-1.4-7.6-6.4-11.3-29-21.3l-14.1-6.3-.6-5.5c-.7-6.4-2.4-9.4-7.6-13.3-2.9-2.2-4.7-2.8-9-2.9l-5.3-.1-5.5-7.9c-3-4.3-5.5-8.1-5.5-8.4 0-.3 2.8-4.2 6.1-8.5 26.2-34 42.5-72.7 48.7-115.3 1.1-7.3 2.2-13.5 2.4-13.8.3-.2 4.9-1.2 10.2-2l9.7-1.6 2.8 3.1c7.2 7.7 18.4 7.6 25.5-.3 1-1.2 2.1-2 2.5-1.9.3.1 5.1 1.8 10.6 3.8 30.3 11.1 34.6 11.5 41.6 3.8 5.2-5.5 5.9-8.2 5.9-21.8 0-11.9-.2-12.9-2.9-18.4-5.6-11-11.1-15.1-18.4-13.6-3.5.7-26 8-29.2 9.5-8.8 4-9.1 4-12.2.8-3.6-3.8-5.2-4.6-10.1-5.3-5.4-.6-12 1.8-15.1 5.6l-2.6 3-10-1.6c-5.4-.8-10-1.7-10.1-1.8-.1-.1-.5-2.9-.8-6.2-.3-3.3-.8-6.9-1-8-.2-1.1-.7-4.3-1-7-1.9-13.5-9.5-39.3-16-54.4-8.1-18.6-21.6-41.2-33.4-55.7l-4.9-6 6.1-9.1c5.1-7.7 6.4-9 8.1-8.4 8.5 3.1 19.7-6.3 20-16.7l.1-4.4 13.9-6.3c20.8-9.2 24.3-11.5 27-17.1 5.2-10.9-5.7-30.6-21-37.9-7.7-3.7-16.8-4.1-21.2-.9-3.8 2.8-9.2 12.2-15.9 28-5 11.8-5.8 13-7.8 12.7-3.2-.6-9.9 1.3-13 3.8-4.1 3.2-6.9 9.5-6.2 13.9.4 2.7.1 3.9-1.2 5-3.4 2.9-14.3 10-15.2 10-.5 0-5.9-3.7-11.8-8.3-26.1-19.7-58.1-34.8-89.5-42.2-10.6-2.4-13.4-2.9-27.7-4.9l-8.4-1.2-1.8-10.3-1.7-10.3 3.4-3c6.7-5.8 7.1-16.9.9-23.5l-3.5-3.7 4.5-12.5c11.1-31.2 11-35.3-.2-43C366.6.6 365.8.5 350 .2l-16.6-.3-4.9 3.3zm23.8 136.9c2.9 1.5 3.7 2.8 3.7 6s-3.4 6.9-6.4 6.9c-7.2 0-9.8-10.4-3.3-13 3-1.2 3.5-1.2 6 .1zm32.5 45.9c21.2 4.4 44 14.2 61.7 26.4 15.1 10.5 14.4 9 8 15.7-4.9 5.1-6 7.5-5.6 11.4 0 .6-2.6 3.6-5.9 6.8-5.9 5.7-5.9 5.8-11.2 5.4-7.3-.5-18.6 3-24.6 7.6-4.9 3.9-13.1 13-15.4 17.3-12.8 23.8-1 42.2 22.2 34.6 13.3-4.4 23.7-13.8 30.1-27.2 2.6-5.5 3.2-7.8 3.3-14.5l.1-8 5.7-5.6c4.4-4.4 6.4-5.6 8.8-5.6 2.4 0 4.3-1.2 8.9-5.7l5.8-5.7 5 6.3c9.4 11.9 13.5 18.6 20.2 32.4C509 292.4 515 313 516.6 328c.3 3 .7 6 .9 6.7.3.8-2 1.1-7.8 1.1-8.2-.1-11.2.7-13.7 3.6-.9 1.2-3 1.6-7.9 1.5h-6.6L477 335c-2.5-3.3-5.8-6.6-7.5-7.3-2.3-1.1-8.9-1.3-29-1.2-14.3.1-26.9.5-28 .9-2.5.8-5.5 4.9-6.1 8.4-.7 3.6-1.4 4.1-1.4.9 0-1.5-.4-3.5-.9-4.5-.5-.9-2.4-4.9-4.2-8.7-4.8-9.9-15.8-20.9-26.1-25.9l-7.7-3.7 3.2-2.9 3.2-2.8.1-28.1c.1-27.7.1-28.1-2.2-31.3-1.2-1.8-4.5-4.9-7.2-6.8l-4.9-3.5-.1-6.6c-.1-5.9.2-6.9 2.3-8.8 1.4-1.1 2.6-2.7 2.6-3.3.1-.7.3-4.7.4-8.8.1-4.1.3-7.7.4-7.8.2-.7 11.4.9 20.9 2.8zm-48.3 6.8c-.1 8.8.3 10.7 2.9 13.5 1.5 1.6 2.2 3.8 2.4 7.8.2 5 0 5.6-2.5 7.1-3.1 1.8-6.4 4.5-10.5 8.5l-2.8 2.6v27.9c0 21.9.3 28.5 1.4 30.6l1.4 2.7-8.3 4.1-8.4 4v-3.5c0-5.4-.7-7.9-4.5-15.6-8-16.2-25.6-27.8-40.6-26.9-5.5.3-5.5.3-11.2-5.4-4.7-4.6-5.8-6.2-5.8-8.9s-1.1-4.4-5.7-9l-5.7-5.6 4.2-3.7c12-10.7 33.5-22.6 53.2-29.3 11.2-3.9 36.4-9 39.5-8 .6.2 1 3.2 1 7.1zm-127 7.7c2.8 2.7 3 4.2 1.4 7.8-1.5 3.3-4.7 4.7-7.9 3.5-3.2-1.2-4-2.5-4-7 0-6.4 6-8.9 10.5-4.3zm289 0c1.4 1.3 2.5 3.5 2.5 4.8 0 2.4-3.4 6.3-6 6.8-6.4 1.2-10-8-4.8-12.4 2.8-2.4 5.5-2.1 8.3.8zM343 264.4c0 24-.5 29.8-2.5 26.7-.3-.6-.6-10.8-.6-22.8 0-32.3-.1-30.3 1.6-30.3 1.3 0 1.5 3.6 1.5 26.4zm16 .6c0 23.3-.2 27-1.5 27-.8 0-1.5-.6-1.6-1.3-.3-3.9-.4-50.4-.1-51.5.2-.6 1-1.2 1.8-1.2 1.2 0 1.4 4.6 1.4 27zm-130.9-18.7c4.2 3.9 6.4 5.2 8.8 5.3 2.6.1 4.6 1.4 9.1 5.9l5.8 5.7-.5 5.8c-1.7 19.3 19 42.5 39.7 44.7 3.3.3 5.9.9 5.7 1.2-.1.3-1.6 3.3-3.3 6.7-3 6-3 6-5.9 4.8-4-1.6-54.4-1.6-57.6 0-1.3.6-4.5 3.8-7.2 7.1l-4.8 6-6 .2c-5.1.1-6.4-.3-9-2.4-2.6-2.2-4.1-2.6-11-2.8-4.4-.1-8.3-.6-8.8-1.1-1.4-1.6 2.7-22.3 7.1-35.9 4.4-13.8 11.5-29.1 18.1-39 5.6-8.3 12.7-17.5 13.5-17.5.4 0 3.2 2.4 6.3 5.3zM357 316.4c11.9 2.8 23 13.5 25.5 24.6 4.5 19.8-6.9 38.5-25.9 42.4-10.4 2.2-19.4.3-27.9-6-14.5-10.6-17.8-30.6-7.7-46.9 6.7-10.9 22.7-17.1 36-14.1zm-70.2 24.3c-.3 1.5-2.5 1.7-23.8 1.8-21.9.1-26.8-.4-25.4-2.6.3-.5 11.5-.9 25-.9 22.6 0 24.5.1 24.2 1.7zM461 342c0 1.4-3.2 1.6-27.2 1.5-23.4 0-27.3-.2-27.6-1.5-.2-1.3 3.4-1.5 27.3-1.5 24.3 0 27.5.2 27.5 1.5zm-312.2 2.9c3.9 3.3 2.4 10.3-2.4 11.5-5.7 1.5-9.7-2.5-8.2-8.2 1.3-5 6.8-6.7 10.6-3.3zm410 .1c4.4 4.1 1.3 12-4.5 12-3.6 0-7.3-4.2-6.7-7.6.7-3.6 1.2-4.4 3.8-5.4 3.4-1.4 5.1-1.1 7.4 1zM290 356.5c0 1.3-3.2 1.5-22.7 1.6-23.3.1-29.5 0-30.2-.6-.1-.2 0-.8.4-1.4.4-.7 9.3-1.1 26.6-1.1 22.4 0 25.9.2 25.9 1.5zm171-.1c0 2-3.5 2.2-31.7 1.8-19.9-.2-23.1-.5-22.6-1.7.8-2.2 54.3-2.2 54.3-.1zm-243.7 2.9c2.4 3.9 3.6 5.4 7.5 9.3l3.3 3.4h57.2l3.3-3.6c2.1-2.2 3.4-3 3.4-2 0 .8 1.7 4.8 3.8 8.9l3.9 7.5-5.4.5c-21.8 2.3-44.3 28.7-40.2 47.4.6 2.8.1 3.6-5.3 9-4.9 4.8-6.5 5.8-9.5 5.9-2.7.1-4.5 1-6.4 3-1.4 1.6-4.5 4.7-6.8 6.9l-4.1 3.9-2.3-2.4c-6.9-7.5-18.1-25.6-23.8-38.5-8-17.8-13.7-39.6-14.3-54l-.1-2.9 8.8-.1c8-.1 9-.3 11.3-2.7 2.2-2.2 3.5-2.6 8.3-2.5 5 .1 5.8.4 7.4 3zm279.2-.3c2.3 2.1 3.5 2.4 11.1 2.4l8.6.1-.6 8.3c-.3 4.6-.8 8.7-1 9-.2.4-.7 2.8-1 5.4-1.6 11.6-8.7 31.7-16.2 45.6-6 11.1-18.8 29.2-20.8 29.2-.4 0-2.8-2.1-5.3-4.6-4.6-4.6-8.6-6.9-10.8-6-.7.2-4-2.3-7.3-5.7l-6.1-6.2.3-5.5c.9-15-10.2-31.9-26.6-40.6-6.9-3.7-7.8-3.9-16.5-3.9h-9.2l2.3-3c2.7-3.6 7.6-15.4 7.7-18.7.1-2 .2-1.9 1.5.9 2.6 6 4.3 6.3 34.8 6.3h27.4l3-2.5c1.6-1.3 4.6-4.9 6.7-7.9l3.8-5.5 5.8.2c4.6.2 6.4.8 8.4 2.7zm-109.4 38.7c-1.2 2.5-.5 11.5 1.4 17.1 2.1 6.4 5.5 11.6 11.2 17.5 9.6 10 20.4 15.1 31 14.5l6.3-.3 5.9 5.9c4.9 4.9 5.9 6.4 5.9 9.3 0 2.8 1 4.3 5.8 9l5.8 5.5-2.4 2c-1.4 1.1-3.4 2.7-4.5 3.7-1.1.9-6.6 4.7-12.1 8.4-16 10.7-36.5 19.4-53.9 23.1-10.4 2.2-12.4 2.5-18.6 3.2l-5.5.5.1-7.3c.2-7.9-.6-11.2-3.5-14.3-1.3-1.5-1.8-3.6-1.8-8.2 0-6.1.1-6.2 4.2-9.1 2.3-1.7 5.6-4.4 7.2-6.1l3.1-3.1v-27.3c.1-25 0-27.5-1.8-30.5-1-1.8-1.9-3.5-1.9-3.6 0-.2 1.5-.9 3.3-1.7 3.3-1.3 7.2-3.8 12-7.7 3.4-2.7 4.1-2.8 2.8-.5zm-66 7.6l7.7 3.9-1.4 2.6c-1.1 2.1-1.4 8.8-1.4 30.5v27.8l3.3 3.3c1.7 1.8 5.3 4.7 7.9 6.5l4.7 3.2-.1 5.9c-.2 4.9-.6 6.4-2.5 8-2.5 2.1-2.5 2.1-2.7 12.5l-.2 7-3.9-.1c-15.2-.2-42.7-8.3-61.4-18.1-9-4.7-20.8-12.2-25.1-15.9-1.4-1.2-3.6-3.1-5-4.2l-2.5-2 5.8-6c4.4-4.6 5.7-6.8 5.7-9.1s1.3-4.3 5.6-8.6l5.6-5.6 8.2-.2c6.7-.2 9.2-.8 14.6-3.3 15.1-7.2 27.7-24.3 28.3-38.4.1-2.2.4-3.9.7-3.8.3.2 3.9 2 8.1 4.1zm37.9 31.3c0 23.5-.1 25.4-1.7 25.4-1.7 0-1.8-1.8-1.8-24.8 0-13.6.4-25.3.8-26 2.2-3.4 2.7 1.6 2.7 25.4zm-16-.1c0 22-.2 25.5-1.5 25.5-.8 0-1.5-.6-1.5-1.3-.1-1.8-.1-38.5-.1-44.5.1-3.9.5-5.2 1.6-5.2 1.3 0 1.5 3.5 1.5 25.5zm-132.4 54.3c2.1 2.7 1.6 6.1-1.1 8.7-3 3-5.4 3.1-8.9.4-4.2-3.3-3.3-9 1.8-11.7 2.4-1.2 6.3 0 8.2 2.6zm286-2.5c2.7.9 4.8 5.8 3.9 8.7-.4 1.2-2.2 2.8-4.1 3.7-3.2 1.6-3.6 1.6-6.2-.4-3.7-2.7-4.1-7.1-.9-10.5 2.5-2.7 3.3-2.8 7.3-1.5zm-142.5 62.3c2.5 2.2 2.4 6.9-.1 9.4-4.2 4.2-11 1.4-11.2-4.8-.1-3.6.8-5.1 3.6-6.2 2.8-1 5.4-.5 7.7 1.6z"/></svg>