<?xml version="1.0" encoding="utf-8"?><!DOCTYPE svg PUBLIC "-//W3C//DTD SVG 1.1//EN" "http://www.w3.org/Graphics/SVG/1.1/DTD/svg11.dtd"><svg viewBox="0 0 512 512" xmlns="http://www.w3.org/2000/svg" xmlns:xlink="http://www.w3.org/1999/xlink"><style>:root>svg{display:none}:root>svg:target{display:block}</style><svg viewBox="0 0 14 9" id="check" xmlns="http://www.w3.org/2000/svg"><path d="M6.336 8.29a.92.92 0 001.289 0l5.313-5.313c.39-.391.39-.977 0-1.329l-.86-.898c-.39-.352-.976-.352-1.328 0L6.96 4.54 3.21.75c-.35-.352-.937-.352-1.327 0l-.86.898c-.39.352-.39.938 0 1.329l5.313 5.312z"/></svg><svg viewBox="0 0 12 21" id="facebook" xmlns="http://www.w3.org/2000/svg"><path d="M10.648 12.234l.547-3.594H7.72V6.296c0-1.015.468-1.953 2.031-1.953h1.602V1.257S9.906.984 8.539.984c-2.851 0-4.726 1.758-4.726 4.883V8.64H.608v3.594h3.204v8.75h3.906v-8.75h2.93z"/></svg><svg viewBox="0 0 18 18" id="instagram" xmlns="http://www.w3.org/2000/svg"><path d="M9 4.492c-.807 0-1.563.208-2.266.625a4.505 4.505 0 00-1.64 1.64 4.377 4.377 0 00-.586 2.227c0 .807.195 1.562.586 2.265a4.94 4.94 0 001.64 1.641A4.59 4.59 0 009 13.476c.807 0 1.55-.195 2.227-.586a4.504 4.504 0 001.64-1.64 4.368 4.368 0 00.625-2.266c0-.807-.208-1.55-.625-2.227a4.143 4.143 0 00-1.64-1.64A4.167 4.167 0 009 4.492zm0 7.422a2.822 2.822 0 01-2.07-.86 2.822 2.822 0 01-.86-2.07c0-.807.287-1.498.86-2.07A2.822 2.822 0 019 6.054c.807 0 1.497.287 2.07.86.573.572.86 1.263.86 2.07 0 .807-.287 1.497-.86 2.07a2.822 2.822 0 01-2.07.86zm5.742-7.618a1.171 1.171 0 01-.351.743.892.892 0 01-.704.312c-.286 0-.533-.104-.742-.312a1.014 1.014 0 01-.312-.743c0-.286.104-.533.312-.742.209-.208.456-.312.742-.312.287 0 .534.104.743.312.208.209.312.456.312.742zm2.969 1.055c-.052-.755-.17-1.406-.352-1.953a4.275 4.275 0 00-1.093-1.68 4.274 4.274 0 00-1.68-1.093c-.547-.183-1.198-.287-1.953-.313C11.903.26 10.693.234 9 .234S6.083.26 5.328.312C4.6.338 3.961.442 3.414.625a4.614 4.614 0 00-1.719 1.093 4.493 4.493 0 00-1.054 1.68c-.183.547-.3 1.198-.352 1.953-.026.73-.039 1.94-.039 3.633s.013 2.917.04 3.672c.051.729.168 1.367.35 1.914a4.868 4.868 0 001.055 1.719 4.432 4.432 0 001.72 1.015c.546.209 1.184.326 1.913.352.755.052 1.98.078 3.672.078 1.693 0 2.904-.026 3.633-.078.755-.026 1.406-.13 1.953-.313a4.493 4.493 0 001.68-1.054 4.614 4.614 0 001.093-1.72c.183-.546.287-1.184.313-1.913.052-.755.078-1.98.078-3.672 0-1.693-.013-2.904-.04-3.633zm-1.875 8.79c-.313.78-.873 1.34-1.68 1.679-.416.156-1.12.26-2.11.312-.546.026-1.353.04-2.421.04h-1.25a56.88 56.88 0 01-2.422-.04c-.963-.052-1.667-.156-2.11-.312-.78-.313-1.34-.873-1.679-1.68-.156-.443-.26-1.146-.312-2.11-.026-.572-.04-1.38-.04-2.421v-1.25c0-1.042.014-1.85.04-2.422.052-.99.156-1.693.312-2.11a2.82 2.82 0 011.68-1.68c.442-.155 1.146-.26 2.11-.312.572-.026 1.38-.039 2.421-.039h1.25c1.042 0 1.849.013 2.422.04.99.052 1.693.156 2.11.312a2.82 2.82 0 011.679 1.68c.156.416.26 1.12.312 2.109.026.547.04 1.354.04 2.422v1.25c0 1.042-.014 1.849-.04 2.422-.052.963-.156 1.666-.312 2.11z"/></svg><svg viewBox="0 0 512 512" id="mail" xmlns="http://www.w3.org/2000/svg"><path d="M504.888 111.933L264.994 297.997c-2.666 2.007-5.83 3.003-8.994 3.003s-6.328-.996-8.994-3.003L7.112 111.933C2.664 118.909 0 127.13 0 136v240c0 24.814 20.186 45 45 45h422c24.814 0 45-20.186 45-45V136c0-8.87-2.664-17.091-7.112-24.067z"/><path d="M467 91H45c-4.618 0-8.987.901-13.184 2.199L256 267.25 480.184 93.199C475.987 91.901 471.618 91 467 91z"/></svg><svg viewBox="0 0 362.3 362.3" id="map" xmlns="http://www.w3.org/2000/svg"><path d="M181.149 0C104.294 0 41.766 62.528 41.766 139.384c0 72.646 115.691 197.714 128.881 211.753l10.502 11.163 10.502-11.163c13.193-14.027 128.882-139.107 128.882-211.753C320.539 62.528 258.011 0 181.149 0zm0 197.065c-31.801 0-57.676-25.875-57.676-57.676 0-31.802 25.875-57.676 57.676-57.676 31.808 0 57.676 25.875 57.676 57.676 0 31.802-25.868 57.676-57.676 57.676z"/></svg><svg viewBox="0 0 405.333 405.333" id="phone" xmlns="http://www.w3.org/2000/svg"><path d="M32 266.88a231.532 231.532 0 0072.704-11.563 31.207 31.207 0 0131.637 6.699l46.037 34.731a257.105 257.105 0 00114.389-114.368l-33.813-44.928a32.279 32.279 0 01-7.915-32.64A231.792 231.792 0 00266.666 32c0-17.673 14.327-32 32-32h74.667c17.673 0 32 14.327 32 32C405.098 238.089 238.089 405.098 32 405.333c-17.673 0-32-14.327-32-32V298.88c0-17.673 14.327-32 32-32z" data-original="#009688"/></svg><svg viewBox="0 0 20 18" id="twitter" xmlns="http://www.w3.org/2000/svg"><path d="M17.93 4.921c.026.105.039.274.039.508 0 1.875-.456 3.685-1.367 5.43-.938 1.849-2.253 3.32-3.946 4.414-1.849 1.224-3.971 1.836-6.367 1.836-2.292 0-4.388-.612-6.289-1.836.286.026.612.039.977.039 1.9 0 3.606-.586 5.117-1.758-.912 0-1.719-.26-2.422-.781a4.236 4.236 0 01-1.406-2.031c.26.026.507.039.742.039.364 0 .729-.04 1.094-.117a4.133 4.133 0 01-2.344-1.446A3.932 3.932 0 01.82 6.64v-.078c.573.339 1.185.52 1.836.547a4.55 4.55 0 01-1.328-1.484A3.903 3.903 0 01.82 3.67c0-.729.196-1.419.586-2.07a11.372 11.372 0 008.438 4.297 5.694 5.694 0 01-.078-.938c0-.729.182-1.406.546-2.03a3.975 3.975 0 011.485-1.524 3.962 3.962 0 012.031-.547c.6 0 1.146.117 1.64.351.522.235.977.547 1.368.938a8.345 8.345 0 002.617-.977c-.312.964-.911 1.72-1.797 2.266A8.81 8.81 0 0020 2.773a9.016 9.016 0 01-2.07 2.148z"/></svg><svg viewBox="0 0 150 150" id="wheel" xmlns="http://www.w3.org/2000/svg"><path d="M146.341 69.079c-1.407 0-6.754 1.974-9.568 3.102-.281-1.128-1.407-1.974-2.814-1.974s-2.815.846-2.815 1.974l-5.347-.846c-.844-11.56-5.347-21.71-12.382-29.888l3.095-4.51c.845.563 2.533.563 3.377-.565 1.126-1.128 1.408-2.537.563-3.383 2.815-1.128 8.162-3.384 9.006-4.512 1.126-1.41.281-4.229-1.689-6.485-2.251-1.973-5.065-2.82-6.472-1.691-1.126.846-3.378 6.203-4.503 9.022-.845-.564-2.533-.282-3.377.564-1.126 1.128-1.407 2.538-.563 3.384l-4.503 3.101a51.597 51.597 0 00-29.831-12.406l-.844-5.357c1.125-.282 1.97-1.41 1.97-2.82s-.845-2.537-1.97-2.82c1.125-2.819 3.095-8.176 3.095-9.586C80.488 1.41 77.955 0 74.86 0c-3.095 0-5.628 1.41-5.91 3.383 0 1.41 1.97 6.767 3.096 9.587-1.126.282-1.97 1.41-1.97 2.82s.844 2.819 1.97 2.819l-.844 5.357c-11.539.846-21.67 5.357-29.831 12.406l-4.503-3.101c.563-.846.563-2.538-.563-3.384-1.126-1.128-2.533-1.41-3.377-.564-1.126-2.82-3.377-7.894-4.503-9.022-1.407-1.128-4.221-.282-6.191 1.973-2.252 1.974-3.096 4.794-1.97 6.485.844 1.128 6.191 3.384 9.005 4.512-.563.846-.281 2.537.563 3.383 1.126 1.128 2.533 1.41 3.377.564l3.096 4.511A51.797 51.797 0 0023.92 71.617l-5.347.845c-.281-1.127-1.407-1.973-2.814-1.973s-2.533.846-2.814 1.973c-2.815-1.127-8.162-3.101-9.569-3.101C1.407 69.643 0 72.18 0 75.282c0 3.102 1.407 5.64 3.377 5.921 1.407 0 6.754-1.974 9.569-3.102.281 1.128 1.407 1.974 2.814 1.974s2.814-.846 2.814-1.974l5.347.846c.845 11.56 5.347 21.711 12.383 29.888l-2.814 4.229c-.845-.564-2.533-.564-3.377.564-1.126 1.128-1.408 2.537-.563 3.383-2.815 1.128-7.88 3.384-9.006 4.512-1.126 1.409-.281 4.229 1.689 6.485 2.251 2.255 5.065 3.101 6.472 1.691 1.126-.846 3.378-6.203 4.503-9.022.845.564 2.533.282 3.377-.564 1.126-1.128 1.407-2.538.563-3.384l4.503-3.101a51.599 51.599 0 0029.831 12.406l.844 5.357c-1.125.282-1.97 1.41-1.97 2.82 0 1.409.845 2.537 1.97 2.819-1.125 2.82-3.095 8.177-3.095 9.587.281 1.973 2.814 3.383 5.91 3.383 3.095 0 5.628-1.41 5.91-3.383 0-1.41-1.97-6.767-3.096-9.587 1.126-.282 1.97-1.41 1.97-2.819 0-1.41-.844-2.82-1.97-2.82l.844-5.357c11.539-.846 21.67-5.357 29.831-12.406l4.503 3.101c-.563.846-.563 2.538.563 3.384 1.126 1.128 2.533 1.41 3.377.564 1.126 2.819 3.377 8.176 4.503 9.022 1.407 1.128 4.221.282 6.473-1.691 2.251-2.256 3.095-5.076 1.688-6.485-.844-1.128-6.191-3.384-9.005-4.512.563-.846.281-2.537-.563-3.383-1.126-1.128-2.533-1.41-3.377-.564l-3.096-4.511a51.795 51.795 0 0012.383-29.888l5.347-.845c.281 1.127 1.407 1.973 2.814 1.973s2.533-.846 2.814-1.973c2.815 1.127 8.162 3.101 9.569 3.101C148.593 80.64 150 78.101 150 75c-.563-2.82-1.97-5.64-3.659-5.921zM30.957 76.974c-1.126 0-1.97-.846-1.97-1.974 0-1.128.844-1.974 1.97-1.974s1.97.846 1.97 1.974c0 1.128-.844 1.974-1.97 1.974zm73.452-34.399c.844-.846 1.97-.846 2.814 0 .845.846.845 1.974 0 2.82-.844.846-1.97.846-2.814 0a2.564 2.564 0 010-2.82zm-29.55-13.252c1.126 0 1.97.846 1.97 1.974 0 1.128-.844 1.974-1.97 1.974-1.125 0-1.97-.846-1.97-1.974 0-1.128.845-1.974 1.97-1.974zM42.495 42.575c.845-.846 1.97-.846 2.815 0 .844.846.844 1.974 0 2.82-.845.846-1.97.846-2.815 0a2.565 2.565 0 010-2.82zm5.066 8.177l2.251 2.255c.563.564 1.126.564 1.689.282l3.096 3.102c-.845 1.974 0 5.075 2.532 7.613 2.815 2.82 6.755 3.665 8.443 1.973-2.251 2.256-3.658 5.358-3.658 8.741v-.846H50.938c-.281 0-.563-.282-.563-.846 0-.564.282-.846.563-.846h11.539v-.282c0-.845-.845-1.691-1.689-1.691H49.812c-.563 0-1.97 1.692-2.814 3.101h-3.377c-.281-.564-.844-1.128-1.407-1.128h-3.659c.563-7.894 3.659-15.507 9.006-21.428zm-2.251 56.673c-.845.846-1.97.846-2.815 0-.844-.846-.844-1.974 0-2.82.845-.846 1.97-.846 2.815 0 .844.846.844 1.974 0 2.82zm2.251-8.177c-5.347-5.92-8.724-13.816-9.287-22.274h3.658c.563 0 1.408-.564 1.408-1.128h3.095c.845 1.41 2.252 3.383 2.814 3.383h10.976c.844 0 1.689-.564 1.689-1.41v-.563H50.938c-.281 0-.563-.282-.563-.846 0-.564.282-.846.563-.846h11.539v-.846c0 3.383 1.407 6.485 3.658 8.74-1.689-1.691-5.628-.845-8.443 1.974-2.532 2.538-3.377 5.64-2.532 7.613l-3.096 3.102c-.563-.282-1.407-.282-1.689.282l-2.814 2.82zm27.298 21.711c-1.125 0-1.97-.846-1.97-1.974 0-1.128.845-1.974 1.97-1.974 1.126 0 1.97.846 1.97 1.974 0 1.128-.844 1.974-1.97 1.974zm32.364-13.534c-.844.846-1.97.846-2.814 0-.844-.846-.844-1.974 0-2.82.844-.846 1.97-.846 2.814 0 .845.846.845 1.974 0 2.82zm-5.065-8.177l-2.252-2.255c-.563-.564-1.126-.564-1.688-.282l-3.096-3.102c.844-1.974 0-5.075-2.533-7.613-2.814-2.82-6.754-3.665-8.443-1.973-1.688 1.691-.844 5.639 1.97 8.458 2.533 2.538 5.629 3.384 7.599 2.538l3.096 3.101c-.282.564-.282 1.41.28 1.692l2.252 2.256c-5.91 5.357-13.508 8.74-21.95 9.304v-3.665c0-.564-.564-1.41-1.127-1.41v-3.383c1.126-.846 3.096-2.256 3.096-2.82V89.098c0-.846-.844-1.692-1.688-1.692h-.282v11.56c0 .282-.281.564-.844.564s-.844-.282-.844-.564V87.688h-1.689v11.278c0 .282-.281.564-.844.564s-.845-.282-.845-.564V87.688h-.562c-.845 0-1.407.846-1.407 1.692v10.996c0 .564 1.97 1.974 3.377 2.819v3.102c-.563.282-1.126.846-1.126 1.41v3.665c-8.443-.564-16.323-3.947-22.233-9.304l2.252-2.256c.563-.564.563-1.128.281-1.692l3.096-3.101c1.97.846 5.065 0 7.598-2.538 2.815-2.82 3.659-6.767 1.97-8.458 2.252 2.255 5.347 3.665 8.724 3.665 7.036 0 12.383-5.64 12.383-12.406 0-7.049-5.628-12.406-12.383-12.406-3.377 0-6.472 1.41-8.724 3.665 1.689-1.691.844-5.639-1.97-8.458-2.533-2.538-5.628-3.384-7.598-2.538l-3.096-3.101c.282-.564.282-1.41-.281-1.692l-2.252-2.256c5.91-5.357 13.79-8.74 22.233-9.304v3.665c0 .564.563 1.41 1.126 1.41v3.101c-1.407.846-3.377 2.256-3.377 2.82v10.996c0 .846.562 1.692 1.407 1.692h.563V51.034c0-.282.28-.564.844-.564.563 0 .844.282.844.564v11.56h1.689v-11.56c0-.282.281-.564.844-.564s.844.282.844.564v11.56h.282c.844 0 1.688-.846 1.688-1.692V49.906c0-.564-1.688-1.974-3.096-2.82v-3.383c.563-.282 1.126-.846 1.126-1.41v-3.665c8.443.564 16.041 3.947 21.951 9.022l-2.251 2.256c-.563.564-.563 1.128-.281 1.692l-3.096 3.101c-1.97-.846-5.066 0-7.599 2.538-2.814 2.82-3.658 6.767-1.97 8.458 1.689 1.692 5.629.846 8.443-1.973 2.533-2.538 3.377-5.64 2.533-7.613l3.096-3.102c.563.282 1.407.282 1.688-.281l2.252-2.256c5.347 5.921 8.724 13.534 9.287 21.992h-3.659c-.563 0-1.407.564-1.407 1.128h-3.377c-.844-1.128-2.252-3.101-2.814-3.101H89.212c-.844 0-1.689.846-1.689 1.691v.282h11.258c.28 0 .562.282.562.846 0 .564-.281.846-.563.846H87.523v1.41h11.258c.28 0 .562.282.562.846 0 .564-.281.846-.563.846H87.523v.564c0 .845.845 1.41 1.689 1.41h10.976c.562 0 1.97-1.974 2.814-3.384h3.096c.281.564.844 1.128 1.407 1.128h3.658c-.281 8.74-3.658 16.353-9.005 22.274zM66.979 75c0-4.23 3.377-7.895 7.88-7.895 4.222 0 7.88 3.384 7.88 7.895 0 4.23-3.377 7.895-7.88 7.895-4.221 0-7.88-3.384-7.88-7.895zm51.783 1.974c-1.126 0-1.97-.846-1.97-1.974 0-1.128.844-1.974 1.97-1.974 1.125 0 1.97.846 1.97 1.974 0 1.128-.845 1.974-1.97 1.974z"/></svg></svg>