<?xml version="1.0" standalone="no"?>
<!DOCTYPE svg PUBLIC "-//W3C//DTD SVG 20010904//EN"
 "http://www.w3.org/TR/2001/REC-SVG-20010904/DTD/svg10.dtd">
<svg version="1.0" xmlns="http://www.w3.org/2000/svg"
 width="700.000000pt" height="700.000000pt" viewBox="0 0 700.000000 700.000000"
 preserveAspectRatio="xMidYMid meet">
<metadata>
Created by potrace 1.11, written by Peter Selinger 2001-2013
</metadata>
<g transform="translate(0.000000,700.000000) scale(0.100000,-0.100000)"
fill="#000000" stroke="none">
<path d="M3285 6968 c-33 -22 -58 -48 -73 -79 l-22 -45 19 -76 c18 -69 69
-224 90 -273 37 -86 38 -92 12 -100 -11 -3 -29 -25 -40 -49 -37 -76 -22 -170
34 -214 26 -21 27 -25 20 -79 -4 -32 -11 -79 -16 -104 l-10 -47 -67 -6 c-111
-12 -121 -14 -297 -50 -11 -3 -65 -18 -120 -34 -298 -87 -564 -225 -819 -425
l-68 -54 -86 59 -86 58 1 55 c1 45 -4 61 -27 93 -35 48 -99 82 -148 77 l-37
-3 -55 126 c-128 294 -170 330 -330 281 -69 -21 -210 -164 -240 -244 -24 -65
-23 -144 1 -183 19 -30 148 -104 287 -163 l122 -53 0 -40 c0 -98 85 -184 173
-174 l43 5 57 -83 c31 -45 57 -86 57 -90 0 -4 -19 -30 -42 -57 -122 -145 -295
-447 -367 -640 -64 -172 -119 -375 -136 -507 -3 -25 -8 -56 -10 -70 -3 -14 -6
-42 -7 -63 -2 -42 2 -40 -117 -57 -41 -6 -77 -13 -81 -15 -4 -2 -19 9 -33 25
-72 81 -181 83 -259 6 l-26 -26 -43 18 c-66 28 -257 93 -315 106 -27 7 -63 11
-80 9 -39 -5 -93 -50 -122 -102 -22 -40 -23 -50 -20 -204 l3 -162 32 -46 c41
-59 90 -83 152 -76 51 7 183 48 309 97 l82 31 41 -35 c24 -20 57 -37 80 -41
69 -12 151 17 171 60 6 13 17 22 27 20 9 -1 39 -6 66 -9 100 -14 120 -18 124
-22 5 -5 6 -9 15 -85 14 -116 14 -117 37 -229 39 -191 113 -399 214 -596 62
-122 177 -302 245 -384 70 -85 70 -77 9 -167 -49 -71 -57 -79 -79 -73 -87 23
-191 -66 -194 -165 l-1 -46 -126 -58 c-166 -76 -256 -127 -275 -157 -20 -29
-26 -105 -12 -148 49 -155 178 -274 316 -291 99 -12 154 51 262 298 62 142 65
146 91 140 90 -18 195 83 187 179 -3 41 -3 41 80 99 l84 57 61 -50 c283 -229
698 -422 1042 -482 17 -3 41 -8 55 -11 31 -6 89 -14 155 -21 28 -3 53 -8 57
-12 3 -4 13 -50 21 -102 l15 -95 -33 -35 c-58 -61 -69 -122 -36 -196 10 -23
29 -48 41 -57 l23 -16 -50 -138 c-97 -265 -102 -321 -37 -386 61 -61 84 -67
256 -67 l153 0 50 33 c59 38 96 100 88 148 -7 46 -56 202 -97 312 l-37 97 30
26 c73 61 69 188 -9 257 l-28 25 14 64 c7 34 13 78 14 96 0 37 5 40 75 46 257
24 615 129 823 242 26 15 76 42 112 62 108 59 334 219 360 254 3 4 46 -19 95
-52 l90 -60 -2 -47 c-4 -62 20 -109 75 -147 34 -24 53 -30 90 -29 l48 1 28
-71 c16 -40 56 -125 89 -190 73 -143 95 -162 183 -162 176 1 379 213 350 368
-14 76 -64 113 -290 213 l-141 63 -6 55 c-7 64 -24 94 -76 133 -29 22 -47 28
-90 29 l-53 1 -55 79 c-30 43 -55 81 -55 84 0 3 28 42 61 85 262 340 425 727
487 1153 11 73 22 135 24 138 3 2 49 12 102 20 l97 16 28 -31 c72 -77 184 -76
255 3 10 12 21 20 25 19 3 -1 51 -18 106 -38 303 -111 346 -115 416 -38 52 55
59 82 59 218 0 119 -2 129 -29 184 -56 110 -111 151 -184 136 -35 -7 -260 -80
-292 -95 -88 -40 -91 -40 -122 -8 -36 38 -52 46 -101 53 -54 6 -120 -18 -151
-56 l-26 -30 -100 16 c-54 8 -100 17 -101 18 -1 1 -5 29 -8 62 -3 33 -8 69
-10 80 -2 11 -7 43 -10 70 -19 135 -95 393 -160 544 -81 186 -216 412 -334
557 l-49 60 61 91 c51 77 64 90 81 84 85 -31 197 63 200 167 l1 44 139 63
c208 92 243 115 270 171 52 109 -57 306 -210 379 -77 37 -168 41 -212 9 -38
-28 -92 -122 -159 -280 -50 -118 -58 -130 -78 -127 -32 6 -99 -13 -130 -38
-41 -32 -69 -95 -62 -139 4 -27 1 -39 -12 -50 -34 -29 -143 -100 -152 -100 -5
0 -59 37 -118 83 -261 197 -581 348 -895 422 -106 24 -134 29 -277 49 l-84 12
-18 103 -17 103 34 30 c67 58 71 169 9 235 l-35 37 45 125 c111 312 110 353
-2 430 -36 25 -44 26 -202 29 l-166 3 -49 -33z m238 -1369 c29 -15 37 -28 37
-60 0 -32 -34 -69 -64 -69 -72 0 -98 104 -33 130 30 12 35 12 60 -1z m325
-459 c212 -44 440 -142 617 -264 151 -105 144 -90 80 -157 -49 -51 -60 -75
-56 -114 0 -6 -26 -36 -59 -68 -59 -57 -59 -58 -112 -54 -73 5 -186 -30 -246
-76 -49 -39 -131 -130 -154 -173 -128 -238 -10 -422 222 -346 133 44 237 138
301 272 26 55 32 78 33 145 l1 80 57 56 c44 44 64 56 88 56 24 0 43 12 89 57
l58 57 50 -63 c94 -119 135 -186 202 -324 71 -148 131 -354 147 -504 3 -30 7
-60 9 -67 3 -8 -20 -11 -78 -11 -82 1 -112 -7 -137 -36 -9 -12 -30 -16 -79
-15 l-66 0 -45 59 c-25 33 -58 66 -75 73 -23 11 -89 13 -290 12 -143 -1 -269
-5 -280 -9 -25 -8 -55 -49 -61 -84 -7 -36 -14 -41 -14 -9 0 15 -4 35 -9 45 -5
9 -24 49 -42 87 -48 99 -158 209 -261 259 l-77 37 32 29 32 28 1 281 c1 277 1
281 -22 313 -12 18 -45 49 -72 68 l-49 35 -1 66 c-1 59 2 69 23 88 14 11 26
27 26 33 1 7 3 47 4 88 1 41 3 77 4 78 2 7 114 -9 209 -28z m-483 -68 c-1 -88
3 -107 29 -135 15 -16 22 -38 24 -78 2 -50 0 -56 -25 -71 -31 -18 -64 -45
-105 -85 l-28 -26 0 -279 c0 -219 3 -285 14 -306 l14 -27 -83 -41 -84 -40 0
35 c0 54 -7 79 -45 156 -80 162 -256 278 -406 269 -55 -3 -55 -3 -112 54 -47
46 -58 62 -58 89 0 27 -11 44 -57 90 l-57 56 42 37 c120 107 335 226 532 293
112 39 364 90 395 80 6 -2 10 -32 10 -71z m-1270 -77 c28 -27 30 -42 14 -78
-15 -33 -47 -47 -79 -35 -32 12 -40 25 -40 70 0 64 60 89 105 43z m2890 0 c14
-13 25 -35 25 -48 0 -24 -34 -63 -60 -68 -64 -12 -100 80 -48 124 28 24 55 21
83 -8z m-1555 -639 c0 -240 -5 -298 -25 -267 -3 6 -6 108 -6 228 0 323 -1 303
16 303 13 0 15 -36 15 -264z m160 -6 c0 -233 -2 -270 -15 -270 -8 0 -15 6 -16
13 -3 39 -4 504 -1 515 2 6 10 12 18 12 12 0 14 -46 14 -270z m-1309 187 c42
-39 64 -52 88 -53 26 -1 46 -14 91 -59 l58 -57 -5 -58 c-17 -193 190 -425 397
-447 33 -3 59 -9 57 -12 -1 -3 -16 -33 -33 -67 -30 -60 -30 -60 -59 -48 -40
16 -544 16 -576 0 -13 -6 -45 -38 -72 -71 l-48 -60 -60 -2 c-51 -1 -64 3 -90
24 -26 22 -41 26 -110 28 -44 1 -83 6 -88 11 -14 16 27 223 71 359 44 138 115
291 181 390 56 83 127 175 135 175 4 0 32 -24 63 -53z m1289 -701 c119 -28
230 -135 255 -246 45 -198 -69 -385 -259 -424 -104 -22 -194 -3 -279 60 -145
106 -178 306 -77 469 67 109 227 171 360 141z m-702 -243 c-3 -15 -25 -17
-238 -18 -219 -1 -268 4 -254 26 3 5 115 9 250 9 226 0 245 -1 242 -17z m1742
-13 c0 -14 -32 -16 -272 -15 -234 0 -273 2 -276 15 -2 13 34 15 273 15 243 0
275 -2 275 -15z m-3122 -29 c39 -33 24 -103 -24 -115 -57 -15 -97 25 -82 82
13 50 68 67 106 33z m4100 -1 c44 -41 13 -120 -45 -120 -36 0 -73 42 -67 76 7
36 12 44 38 54 34 14 51 11 74 -10z m-2688 -115 c0 -13 -32 -15 -227 -16 -233
-1 -295 0 -302 6 -1 2 0 8 4 14 4 7 93 11 266 11 224 0 259 -2 259 -15z m1710
1 c0 -20 -35 -22 -317 -18 -199 2 -231 5 -226 17 8 22 543 22 543 1z m-2437
-29 c24 -39 36 -54 75 -93 l33 -34 286 0 286 0 33 36 c21 22 34 30 34 20 0 -8
17 -48 38 -89 l39 -75 -54 -5 c-218 -23 -443 -287 -402 -474 6 -28 1 -36 -53
-90 -49 -48 -65 -58 -95 -59 -27 -1 -45 -10 -64 -30 -14 -16 -45 -47 -68 -69
l-41 -39 -23 24 c-69 75 -181 256 -238 385 -80 178 -137 396 -143 540 l-1 29
88 1 c80 1 90 3 113 27 22 22 35 26 83 25 50 -1 58 -4 74 -30z m2792 3 c23
-21 35 -24 111 -24 l86 -1 -6 -83 c-3 -46 -8 -87 -10 -90 -2 -4 -7 -28 -10
-54 -16 -116 -87 -317 -162 -456 -60 -111 -188 -292 -208 -292 -4 0 -28 21
-53 46 -46 46 -86 69 -108 60 -7 -2 -40 23 -73 57 l-61 62 3 55 c9 150 -102
319 -266 406 -69 37 -78 39 -165 39 l-92 0 23 30 c27 36 76 154 77 187 1 20 2
19 15 -9 26 -60 43 -63 348 -63 l274 0 30 25 c16 13 46 49 67 79 l38 55 58 -2
c46 -2 64 -8 84 -27z m-1094 -387 c-12 -25 -5 -115 14 -171 21 -64 55 -116
112 -175 96 -100 204 -151 310 -145 l63 3 59 -59 c49 -49 59 -64 59 -93 0 -28
10 -43 58 -90 l58 -55 -24 -20 c-14 -11 -34 -27 -45 -37 -11 -9 -66 -47 -121
-84 -160 -107 -365 -194 -539 -231 -104 -22 -124 -25 -186 -32 l-55 -5 1 73
c2 79 -6 112 -35 143 -13 15 -18 36 -18 82 0 61 1 62 42 91 23 17 56 44 72 61
l31 31 0 273 c1 250 0 275 -18 305 -10 18 -19 35 -19 36 0 2 15 9 33 17 33 13
72 38 120 77 34 27 41 28 28 5z m-660 -76 l77 -39 -14 -26 c-11 -21 -14 -88
-14 -305 l0 -278 33 -33 c17 -18 53 -47 79 -65 l47 -32 -1 -59 c-2 -49 -6 -64
-25 -80 -25 -21 -25 -21 -27 -125 l-2 -70 -39 1 c-152 2 -427 83 -614 181 -90
47 -208 122 -251 159 -14 12 -36 31 -50 42 l-25 20 58 60 c44 46 57 68 57 91
0 23 13 43 56 86 l56 56 82 2 c67 2 92 8 146 33 151 72 277 243 283 384 1 22
4 39 7 38 3 -2 39 -20 81 -41z m379 -313 c0 -235 -1 -254 -17 -254 -17 0 -18
18 -18 248 0 136 4 253 8 260 22 34 27 -16 27 -254z m-160 1 c0 -220 -2 -255
-15 -255 -8 0 -15 6 -15 13 -1 18 -1 385 -1 445 1 39 5 52 16 52 13 0 15 -35
15 -255z m-1324 -543 c21 -27 16 -61 -11 -87 -30 -30 -54 -31 -89 -4 -42 33
-33 90 18 117 24 12 63 0 82 -26z m2860 25 c27 -9 48 -58 39 -87 -4 -12 -22
-28 -41 -37 -32 -16 -36 -16 -62 4 -37 27 -41 71 -9 105 25 27 33 28 73 15z
m-1425 -623 c25 -22 24 -69 -1 -94 -42 -42 -110 -14 -112 48 -1 36 8 51 36 62
28 10 54 5 77 -16z"/>
</g>
</svg>
